<?xml version="1.0" encoding="utf-8"?>
<!-- Generator: Adobe Illustrator 16.0.0, SVG Export Plug-In . SVG Version: 6.00 Build 0)  -->
<!DOCTYPE svg PUBLIC "-//W3C//DTD SVG 1.1//EN" "http://www.w3.org/Graphics/SVG/1.1/DTD/svg11.dtd">
<svg version="1.1" id="Layer_1" xmlns="http://www.w3.org/2000/svg" xmlns:xlink="http://www.w3.org/1999/xlink" x="0px" y="0px"
	 width="240px" height="792px" viewBox="0 0 240 792" enable-background="new 0 0 240 792" xml:space="preserve">
<g>
	<path fill-rule="evenodd" clip-rule="evenodd" fill="#63205E" d="M26.728,670.443c1.141-19.289-3.634-41.502,23.667-47.853
		c5.83-0.217,10.546,2.071,14.385,6.351c5.082,7.554,6.871,16.947,13.31,23.749c12.694,18.791,23.647,6.042,34.878-1.938
		c4.686-1.128,8.664,0.064,12.009,3.508c6.468,9.597,5.289,20.531,5.615,31.197c0.018,5.815-0.16,11.647-0.283,17.455
		c-0.152,6.884,0.525,13.695,2.035,20.433c0.432,2.697,0.365,5.399-0.038,8.098c-1.115,3.965-3.518,7.076-6.542,9.749
		c-10.111,6.551-7.058,18.226-10.543,27.386c-1.109,2.527-2.726,4.653-4.819,6.451c-3.641,2.16-7.61,3.198-11.766,3.684
		c-4.127,0.507-8.278,0.625-12.435,0.653c-4.157,0.187-8.313,0.187-12.479,0.199c-4.232,0.18-8.459,0.186-12.7,0.169
		c-10.155-0.263-20.418,0.583-30.278-2.867c-2.732-1.312-4.997-3.188-6.781-5.646c-4.723-9.906-4.288-20.146-1.95-30.496
		c0.814-2.744,2.034-5.33,3.462-7.805c10.31-17.408,5.374-38.897,15.398-56.897c2.804-5.038-7.555-0.291-11.058-3.018
		C28.756,672.142,27.74,671.296,26.728,670.443z"/>
	<path fill-rule="evenodd" clip-rule="evenodd" fill="#63215F" d="M52.727,563.195c-0.517-44.386-5.074-89.267,0.201-132.957
		c2.525-20.931,7.056-46.22,25.708-64.288c9.673-9.369,14.347-23.912,21.279-36.118c6.828-5.879,14.078-6.137,21.688-1.653
		c3.547,3.334,4.761,7.455,4.08,12.201c-7.13,13.48-11.713,28.572-23.946,38.956c-4.849,4.758-9.362,9.813-13.276,15.389
		c-11.168,15.816-1.83,35.32-9.265,51.788c-7.948,10.888-9.688,21.956-0.946,33.33c2.117,5.189,2.195,10.438,0.438,15.722
		c-4.35,6.824-5.654,13.725-0.359,20.782c1.842,5.241,1.772,10.413-0.415,15.527c-5.552,7.729-7.674,16.317-6.421,25.775
		c-0.704,4.472-3.258,7.396-7.446,8.974C59.676,567.445,55.785,566.691,52.727,563.195z"/>
	<path fill-rule="evenodd" clip-rule="evenodd" fill="#411411" d="M134.652,282.873c8.812-11.67,8.637-23.474,0.54-35.407
		c-15.879-0.888-6.603-13.352-9.338-20.246c0.365-2.791,1.415-5.332,3.202-7.515c8.719-5.224,10.814-14.244,13.051-23.222
		c1.191-2.627,2.901-4.823,5.108-6.667c6.88-3.765,14.069-3.684,21.431-1.856c5.867,1.786,11.109,4.641,15.453,9.036
		c1.803,2.447,3.023,5.174,3.73,8.132c1.001,5.931,0.455,11.652-2.602,16.958c-2.6,3.235-6.121,5.145-9.854,6.638
		c-6.389,1.98-9.486,6.282-8.938,13.096c-0.11,8.271,6.083,13.865,8.804,20.934c3.223,10.037,3.456,19.954-1.062,29.692
		c-6.279,8.658-17.044,10.239-25.176,16.013c-6.594,3.334-13.488,4.256-20.689,2.493c-2.65-0.906-4.906-2.452-6.822-4.49
		C120.665,295.708,129.15,290.123,134.652,282.873z"/>
	<path fill-rule="evenodd" clip-rule="evenodd" fill="#742F70" d="M121.66,201.019c-17.599-27.929-5.718-61.578-17.549-90.627
		c-2.589-13.246-5.467-26.504,2.064-39.219c4.594-2.854,9.568-3.415,14.798-2.522c6.728,1.652,12.412,4.974,16.612,10.59
		c6.804,13.398,4.881,27.689,4.2,41.822c-0.368,2.814-1.118,5.599-2.09,8.267c-3.325,7.671-12.21,14.49-3.739,24.111
		c1.55,2.305,2.688,4.758,3.631,7.355c1.299,4.168,1.918,8.424,2.141,12.768c0.055,9.247,0.107,18.494-6.764,25.919
		C130.799,202.344,126.38,202.975,121.66,201.019z"/>
	<path fill-rule="evenodd" clip-rule="evenodd" fill="#6C285E" d="M195.314,461.235c15.517,14.935,16.953,36.074,21.754,54.907
		c3.746,14.682,0.242,31.209-0.037,46.912c-4.204,3.55-8.387,3.17-12.559-0.052c-5.706-7.793-5.332-16.966-5.891-25.915
		c0.6-8.559-3.248-15.622-7.727-22.435c-1.176-2.644-1.847-5.429-1.686-8.384c0.002-0.075-0.576,1.157-0.654,3.743
		c-0.295,9.41,2.405,19.755-8.158,25.996c-4.919,1.033-9.175-0.013-12.681-3.765c-8.488-15.786-4.118-32.896-5.28-49.431
		c0.029-6.638,0.082-13.275,0.826-19.883c0.648-4.922,2.242-9.475,5.307-13.439C183.065,440.57,187.23,455.37,195.314,461.235z"/>
	<path fill-rule="evenodd" clip-rule="evenodd" fill="#485482" d="M206.684,699.731c-2.389,2.451-4.779,4.903-7.164,7.356
		c-1.296,2.604-1.938,5.324-2.139,8.26c-2.125,30.972-8.504,33.691-36.684,15.774c-2.268-2.073-4.033-4.524-5.367-7.291
		c-2.116-5.867-1.676-11.618,0.905-17.245c8.638-12.54,15.195-26.616,26.775-37.089c16.183-4.77,18.234,9.743,24.775,18.15
		C209.409,691.851,209.804,695.954,206.684,699.731z"/>
	<path fill-rule="evenodd" clip-rule="evenodd" fill="#7B2D76" d="M195.314,461.235c-10.938,2.01-13.977-12.281-24.207-11.728
		c-8.074-5.948-8.381-15.411-10.918-23.899c-0.797-4.542-0.735-9.084,0.033-13.62c4.15-13.292,0.691-27.701,5.855-40.877
		c3.738-5.872,7.971-10.21,15.23-4.729c1.164,1.268,1.667,2.756,1.509,4.472c11.071,12.394,0.31,30.247,10.695,42.805
		C194.114,429.52,194.716,445.381,195.314,461.235z"/>
	<path fill-rule="evenodd" clip-rule="evenodd" fill="#995524" d="M170.403,293.187c-0.423-11.091-0.847-22.182-1.27-33.263
		c0.969-2.5,2.755-4.064,5.354-4.705c4.011-0.246,7.394,1.132,10.233,3.934c4.428,6.036,8.377,12.41,13.001,18.343
		c3.302,5.522,7.307,10.671,9.063,17.005c-0.52,2.924-0.995,8.401-1.559,8.407c-22.96,0.36-24.251,16.258-24.256,33.17
		c-5.299,3.479-9.939,2.977-13.808-2.288C160.613,319.65,160.967,306.06,170.403,293.187z"/>
	<path fill-rule="evenodd" clip-rule="evenodd" fill="#7B2E77" d="M153.4,72.55c13.74,20.083,27.474,40.171,41.21,60.253
		c-0.867,0.935-1.733,1.869-2.595,2.814c-3.459,1.909-7.201,2.627-11.115,2.668c-3.941-0.082-7.736-0.882-11.41-2.317
		c-3.689-1.577-7.103-3.632-10.356-5.996c-6.376-5.347-13.22-10.269-16.86-18.185c-1.252-13.235-5.47-27.006,6.793-37.8
		C150.505,73.497,151.953,73.023,153.4,72.55z"/>
	<path fill-rule="evenodd" clip-rule="evenodd" fill="#113B44" d="M158.573,724.578c24.093,18.628,36.845,10.7,40.946-17.49
		c-0.093,19.925,5.676,40.346-5.084,59.354c-3.556,3.49-7.932,4.29-12.686,3.923c-9.02-2.049-18.588-2.726-25.644-9.924
		c-4.492-7.188-5.091-15.08-4.235-23.253C152.694,732.243,154.568,727.842,158.573,724.578z"/>
	<path fill-rule="evenodd" clip-rule="evenodd" fill="#652160" d="M4.359,772.501c-8.214-34.17,17.446-64.135,12.537-98.036
		c-0.123-0.846,6.404-2.656,9.831-4.021l0.63,0.531c10.342,21.916,8.193,43.783-0.283,65.624l0.079-0.082
		c-9.629,8.453-4.367,20.362-7.025,30.457c-0.891,2.691-2.376,4.99-4.35,7.004C11.663,775.894,7.778,775.986,4.359,772.501z"/>
	<path fill-rule="evenodd" clip-rule="evenodd" fill="#7B2E77" d="M110.877,72.965c-11.197,10.852-3.646,25.108-6.763,37.426
		c-9.495-30.935-5.75-62.559-3.27-93.745c1.258-15.826,9.064-13.474,14.765-0.747c2.303,7.087-0.415,15.915,7.303,21.121
		c1.852,0.345,3.672,0.8,5.468,1.355c2.142,5.832-0.814,10.205-4.066,14.525C118.528,58.708,117.034,67.407,110.877,72.965z"/>
	<path fill-rule="evenodd" clip-rule="evenodd" fill="#753517" d="M182.027,203.669c-0.59-1.172-0.848-2.417-0.769-3.725
		c-6.218-10.974-8.261-22.23-2.36-34.034c2.968-4.396,7.194-6.615,12.407-7.076c9.628,0.905,18.708,3.34,26.16,10.018
		c-0.079,11.56-0.155,23.118-0.231,34.683C205.518,208.643,193.787,210.185,182.027,203.669z"/>
	<path fill-rule="evenodd" clip-rule="evenodd" fill="#D78538" d="M182.027,203.669c11.713-6.357,23.427-12.079,35.207-0.134
		c0.062,6.398,0.126,12.796,0.188,19.19c-2.51,2.661-5.424,4.739-8.775,6.192c-5.98,2.243-9.057,7.725-13.266,11.986
		c-3.406,2.487-7.148,3.134-11.227,2.142c-2.516-1.319-4.338-3.269-5.525-5.843c-2.119-5.803-0.225-10.946,2.595-15.932
		C181.492,215.403,181.758,209.536,182.027,203.669z"/>
	<path fill-rule="evenodd" clip-rule="evenodd" fill="#D78538" d="M206.785,294.501c-12.298-0.188-12.395-9.079-12.706-17.817
		c0.329-1.075,0.663-2.142,0.96-3.222c2.797-4.916,4.768-10.106,5.012-15.862c0.289-4.897,0.756-9.737,2.534-14.374
		c1.208-2.34,2.933-4.168,5.222-5.464c4.008-1.139,7.606-0.614,10.543,2.592l0.914-0.69c4.106,6.574,4.014,13.054-0.414,19.44
		C212.76,270.198,230.175,289.306,206.785,294.501z"/>
	<path fill-rule="evenodd" clip-rule="evenodd" fill="#485482" d="M158.798,789.442c-7.867,0.023-15.736,0.048-23.605,0.064
		c-5.348-3.981-9.597-8.984-13.521-14.367c-1.46-2.463-2.292-5.097-2.593-7.939c0.299-4.723,2.187-8.436,6.592-10.619
		c11.482-3.754,21.413-1.337,29.75,7.455C162.785,771.679,166.133,779.856,158.798,789.442z"/>
	<path fill-rule="evenodd" clip-rule="evenodd" fill="#995524" d="M172.561,336.107c2.803-0.006,5.607-0.017,8.412-0.029
		c0.111,10.105,0.223,20.206,0.332,30.304c-6.152-0.327-10.061,2.785-12.483,8.168c-2.884,0.666-5.716,0.525-8.493-0.554
		c-3.889-2.563-6.058-6.282-7.217-10.696c-1.456-7.548-0.978-14.833,3.182-21.572C160.634,336.738,166.361,335.735,172.561,336.107z
		"/>
	<path fill-rule="evenodd" clip-rule="evenodd" fill="#793A19" d="M27.416,772.717c11.766,0.035,23.536,0.076,35.302,0.117
		c4.913,5.675,5.336,11.174-0.63,16.423c-11.603,0.069-23.208,0.134-34.811,0.202C22.255,783.838,22.177,778.257,27.416,772.717z"/>
	<path fill-rule="evenodd" clip-rule="evenodd" fill="#943E8F" d="M122.576,48.592c1.936-3.404,3.871-6.814,5.804-10.217
		c6.013,5.47,12.028,10.94,18.044,16.41c-4.609,5.307-3.806,12.581-6.689,18.518c-1.136,2.48-2.822,4.518-5.016,6.129
		c-4.956-0.128-9.393-1.29-12.052-6.013C116.257,65.166,116.374,56.887,122.576,48.592z"/>
	<path fill-rule="evenodd" clip-rule="evenodd" fill="#4E174D" d="M158.798,789.442c0.604-8.424-2.122-15.896-6.594-22.861
		c0.765-3.509,2.966-5.569,6.436-6.328c8.101,1.36,17.441-2.872,24.007,5.354c2.098,1.769,2.723,3.999,2.092,6.632
		c-3.672,6.667-8.576,12.307-14.376,17.204C166.507,789.442,162.653,789.442,158.798,789.442z"/>
	<path fill-rule="evenodd" clip-rule="evenodd" fill="#63215F" d="M217.466,168.852c-8.019-1.197-17.528,2.954-23.249-6.48
		c-7.779-9.749-7.727-19.452,0.172-29.108l0.219-0.461C201.008,145.594,215.062,153.527,217.466,168.852z"/>
	<path fill-rule="evenodd" clip-rule="evenodd" fill="#662160" d="M193.513,413.659c-20.413-10.055-7.38-28.473-10.695-42.805
		C204.65,380.558,191.061,399.116,193.513,413.659z"/>
	<path fill-rule="evenodd" clip-rule="evenodd" fill="#6C2F13" d="M62.896,628.761c-5.216,0.075-9.852-1.033-12.499-6.17
		c0.566-11.77,1.136-23.538,1.705-35.308c2.204-2.365,4.907-3.328,8.115-2.886c3.062,0.918,5.304,2.81,6.763,5.652
		c4.069,11.938,4.571,23.807-0.785,35.553C65.108,626.665,64.002,627.709,62.896,628.761z"/>
	<path fill-rule="evenodd" clip-rule="evenodd" fill="#21110A" d="M122.524,330.445c-7.538-0.205-15.077-0.409-22.611-0.612
		c0.023-6.335-4.693-13.761,4.171-18.045c6.045-1.974,10.587-9.044,18.294-5.401l0.215-0.314c5.996,6.299,6.824,13.374,3.199,21.132
		C124.713,328.285,123.619,329.366,122.524,330.445z"/>
	<path fill-rule="evenodd" clip-rule="evenodd" fill="#113B44" d="M206.967,598.788c-0.111,11.992-0.223,23.982-0.334,35.969
		c-1.108,0.881-2.221,1.763-3.333,2.649c-4.51,1.127-8.424,0.251-11.544-3.392c-2.324-3.783-3.406-7.951-3.827-12.329
		c-0.496-7.339-0.091-14.571,2.813-21.478c3.133-5.435,7.525-8.827,14.119-8.559c1.9,1.162,2.846,2.609,2.838,4.331
		C207.689,597.855,207.445,598.788,206.967,598.788z"/>
	<path fill-rule="evenodd" clip-rule="evenodd" fill="#D78638" d="M206.967,598.788c-0.617-1.943-1.229-3.893-1.846-5.843
		c-7.215-10.438-7.557-20.316,2.414-29.347c3.164-0.182,6.332-0.368,9.496-0.55C213.937,575.041,230.3,592.508,206.967,598.788z"/>
	<path fill-rule="evenodd" clip-rule="evenodd" fill="#113B44" d="M206.684,699.731c-0.324-3.816-0.648-7.635-0.973-11.441
		c-6.705-10.608-7.256-22.465-7.043-34.496c0.291-7.157,2.957-13.353,7.623-18.728l0.342-0.31
		C216.125,656.403,216.242,678.068,206.684,699.731z"/>
	<path fill-rule="evenodd" clip-rule="evenodd" fill="#3D2517" d="M122.379,306.386c-5.845,2.663-11.102,7.316-18.294,5.401
		c14.133-5.465,11.515-28.646,30.567-28.915C135.184,293.123,125.998,298.301,122.379,306.386z"/>
	<path fill-rule="evenodd" clip-rule="evenodd" fill="#4B5784" d="M206.82,767.931c13.961-1.811,29.131-5.675,34.244,13.567
		c2.251,8.453-4.123,9.001-10.486,7.916c-4.572-3.498-8.215-8.273-14.043-10.024c-3.46-1.226-6.775-2.702-9.68-4.991
		C205.113,772.251,205.109,770.091,206.82,767.931z"/>
	<path fill-rule="evenodd" clip-rule="evenodd" fill="#63205E" d="M182.354,772.338c0.1-2.236,0.195-4.478,0.293-6.725
		c3.931,0.272,7.859,0.554,11.789,0.828l0.697-0.748c5.333,8.139,6.205,16.103-0.966,23.727c-3.848-0.024-7.694-0.041-11.545-0.064
		C177.458,783.768,177.836,778.087,182.354,772.338z"/>
	<path fill-rule="evenodd" clip-rule="evenodd" fill="#677DA2" d="M194.167,789.42c0.32-7.905,0.645-15.814,0.966-23.727
		c3.896,0.748,7.791,1.489,11.688,2.237c0.067,1.534,0.05,3.07-0.049,4.605c4.308,5.727,4.543,11.413-0.19,17.035
		C202.441,789.519,198.306,789.472,194.167,789.42z"/>
	<path fill-rule="evenodd" clip-rule="evenodd" fill="#D78538" d="M121.66,201.019c4.3-0.647,8.596-1.302,12.896-1.956
		c1.062,1.085,2.122,2.167,3.196,3.246c3.354,7.707,3.098,14.712-3.993,20.373l-1.739,0.363l-1.746-0.333
		c-2.893,3.285-5.502,3.07-7.826-0.637C122.186,215.058,121.923,208.042,121.66,201.019z"/>
	<path fill-rule="evenodd" clip-rule="evenodd" fill="#C3A8C0" d="M122.447,222.076c2.61,0.209,5.217,0.42,7.824,0.637
		c0.639,8.447-3.492,17.847,4.918,24.753c-1.453,8.931-6.221,13.923-10.769,3.164C120.907,242.315,122.904,231.68,122.447,222.076z"
		/>
	<path fill-rule="evenodd" clip-rule="evenodd" fill="#6A2864" d="M135.014,73.928c-0.388-8.874-1.602-18.243,11.41-19.136
		c3.08,5.621,8.749,10.228,6.977,17.758l-0.829,0.421C146.941,77.343,141.123,78.301,135.014,73.928z"/>
	<path fill-rule="evenodd" clip-rule="evenodd" fill="#995524" d="M62.46,586.88c-3.452,0.135-6.906,0.269-10.359,0.403
		c0.208-8.027,0.415-16.061,0.625-24.088c2.86-0.07,5.721-0.141,8.582-0.211C70.076,570.545,69.974,578.531,62.46,586.88z"/>
	<path fill-rule="evenodd" clip-rule="evenodd" fill="#652866" d="M122.912,37.021c-17.23-1.944-11.346-11.856-7.3-21.133
		C129.78,18.882,119.479,30.331,122.912,37.021z"/>
	<path fill-rule="evenodd" clip-rule="evenodd" fill="#677DA2" d="M218.262,772.402c11.813,0.087,12.126,8.511,12.316,17.012
		c-4.119,0.052-8.237,0.104-12.359,0.157C213.399,783.838,213.636,778.111,218.262,772.402z"/>
	<path fill-rule="evenodd" clip-rule="evenodd" fill="#64356D" d="M218.262,772.402c-0.017,5.727-0.031,11.454-0.047,17.169
		c-3.873,0-7.748,0-11.631,0c0.055-5.681,0.11-11.36,0.178-17.041C210.604,772.489,214.433,772.443,218.262,772.402z"/>
	<path fill-rule="evenodd" clip-rule="evenodd" fill="#495482" d="M182.354,772.338c0.091,5.675,0.181,11.35,0.271,17.018
		c-4.089,0.029-8.176,0.059-12.263,0.087C170.803,781.252,170.03,772.203,182.354,772.338z"/>
	<path fill-rule="evenodd" clip-rule="evenodd" fill="#869CC1" d="M123.484,772.46c12.496-0.222,10.809,9.305,11.708,17.047
		c-4.308,0.012-8.61,0.022-12.919,0.035C117.947,783.518,117.638,777.767,123.484,772.46z"/>
	<path fill-rule="evenodd" clip-rule="evenodd" fill="#63205E" d="M123.484,772.46c-0.406,5.693-0.809,11.391-1.211,17.082
		c-3.818-0.064-7.637-0.128-11.457-0.198c-4.985-5.721-4.688-11.414,0.117-17.076l-0.28,0.285c3.879-3.63,7.706-3.665,11.48,0.164
		L123.484,772.46z"/>
	<path fill-rule="evenodd" clip-rule="evenodd" fill="#995524" d="M110.933,772.268c-0.038,5.691-0.077,11.391-0.114,17.076
		c-3.917,0.018-7.829,0.028-11.746,0.041c-5.094-5.336-4.927-10.777-0.295-16.301C102.833,772.815,106.881,772.542,110.933,772.268z
		"/>
	<path fill-rule="evenodd" clip-rule="evenodd" fill="#D78538" d="M98.778,773.084c0.1,5.436,0.199,10.87,0.298,16.301
		c-4.145,0-8.287,0-12.432,0c-4.507-5.575-4.588-11,0.595-16.224C91.087,773.138,94.934,773.113,98.778,773.084z"/>
	<path fill-rule="evenodd" clip-rule="evenodd" fill="#995524" d="M87.24,773.161c-0.198,5.412-0.397,10.823-0.595,16.224
		c-3.83,0-7.659,0-11.492,0c-5.108-5.214-4.924-10.62-0.583-16.183C78.795,773.189,83.017,773.179,87.24,773.161z"/>
	<path fill-rule="evenodd" clip-rule="evenodd" fill="#D78538" d="M74.569,773.202c0.195,5.399,0.391,10.793,0.583,16.183
		c-4.353-0.041-8.704-0.089-13.062-0.128c0.21-5.471,0.423-10.953,0.634-16.429C66.667,772.956,70.619,773.078,74.569,773.202z"/>
	<path fill-rule="evenodd" clip-rule="evenodd" fill="#63205E" d="M27.416,772.717c-0.046,5.581-0.096,11.169-0.14,16.742
		c-4.055,0.024-8.106,0.048-12.161,0.07c-4.872-5.662-4.633-11.343-0.05-17.04l0.589-0.642c3.78-3.001,7.493-2.954,11.133,0.251
		L27.416,772.717z"/>
	<path fill-rule="evenodd" clip-rule="evenodd" fill="#54361F" d="M15.066,772.489c0.015,5.681,0.032,11.367,0.05,17.04
		c-15.436,1.811-11.095-8.873-10.756-17.028C7.929,772.495,11.499,772.495,15.066,772.489z"/>
	<path fill-rule="evenodd" clip-rule="evenodd" fill="#995524" d="M218.35,240.355c-4.092-0.304-8.184-0.608-12.276-0.905
		c-4.65-5.342-4.276-10.725-0.12-16.129c3.824-0.198,7.645-0.397,11.469-0.595C217.73,228.603,218.041,234.476,218.35,240.355z"/>
	<path fill-rule="evenodd" clip-rule="evenodd" fill="#D9A968" d="M218.85,259.105c0.137-6.479,0.274-12.96,0.411-19.44
		c5.782,0.934,10.999,2.172,10.885,9.925C230.031,257.441,224.479,258.165,218.85,259.105z"/>
	<path fill-rule="evenodd" clip-rule="evenodd" fill="#7B2E77" d="M72.954,759.324c-0.499-0.174-4.171-0.361-5.788-2.276
		c-6.51-7.706-7.082-21.934-2.289-24.683c17.692-10.157-2.854-42.453,26.469-43.393c14.265-0.461,25.716,0.327,12.219,19.64
		c-8.079,11.564-11.678,26.374-16.585,39.971C84.799,754.638,82.993,759.909,72.954,759.324z"/>
	<path fill-rule="evenodd" clip-rule="evenodd" fill="#7B2E77" d="M27.075,736.599c0.093-21.876,0.187-43.75,0.283-65.619
		c11.564,1.956,9.337-14.104,23.807-15.534C45.367,684.438,45.187,712.674,27.075,736.599z"/>
	<path fill-rule="evenodd" clip-rule="evenodd" fill="#531736" d="M158.64,760.253c-2.142,2.114-4.288,4.221-6.436,6.328
		c-8.436-6.387-18.101-6.661-28.024-5.621c-8.9-8.284-8.17-16.458,0.291-24.531c1.705-2.294,3.41-4.589,5.111-6.883
		c10.836-3.146,20.246-0.449,28.5,6.964C158.27,744.421,158.453,752.337,158.64,760.253z"/>
	<path fill-rule="evenodd" clip-rule="evenodd" fill="#471145" d="M110.734,652.812c1.404,14.449-6.08,18.332-19.343,18.191
		c-13.171-0.141-17.246-6.434-16.414-18.186c1.03-1.027,2.058-2.055,3.08-3.1c9.863-4.53,19.734-4.541,29.618-0.034
		C108.7,650.712,109.715,651.762,110.734,652.812z"/>
	<path fill-rule="evenodd" clip-rule="evenodd" fill="#010101" d="M158.082,736.51c-10.146,0.327-20.365,0.947-28.503-6.958
		c-0.222-1.303-0.323-2.597-0.301-3.911c-0.251-5.365-0.706-10.754,1.308-15.931c1.241-2.436,3.109-4.269,5.477-5.601
		c3.967-1.085,7.686-0.542,11.098,1.805c5.942,4.922,4.903,14.14,11.46,18.722l-0.047-0.058
		C158.409,728.553,158.246,732.528,158.082,736.51z"/>
	<path fill-rule="evenodd" clip-rule="evenodd" fill="#7B2E77" d="M123.003,689.113c-0.088-12.085-0.176-24.169-0.263-36.254
		c1.068-0.787,2.133-1.581,3.202-2.382c4.267-0.928,7.846,0.292,10.803,3.474c3.19,4.594,3.961,9.849,4.218,15.261
		c0.164,5.358-0.23,10.659-2.002,15.785c-1.104,2.481-2.782,4.495-4.992,6.065C129.953,692.481,126.242,692.113,123.003,689.113z"/>
	<path fill-rule="evenodd" clip-rule="evenodd" fill="#7B2E77" d="M26.789,772.099c-3.716-0.083-7.429-0.157-11.135-0.246
		c3.167-12.003-10.042-29.323,11.497-35.336C27.031,748.374,26.908,760.236,26.789,772.099z"/>
	<path fill-rule="evenodd" clip-rule="evenodd" fill="#B36640" d="M124.471,736.429c-0.102,8.167-0.201,16.347-0.298,24.531
		c-0.671,3.917-1.351,7.835-2.034,11.752c-3.833-0.047-7.659-0.105-11.486-0.159C115.366,760.551,98.125,740.148,124.471,736.429z"
		/>
	<path fill-rule="evenodd" clip-rule="evenodd" fill="#471146" d="M74.977,652.818c-16.407-1.803-10.689-14.711-12.082-24.058
		l-0.131,0.151c4.719-3.771,9.39-3.421,14.031,0.164c5.371,8.43,4.15,16.329-1.918,23.835L74.977,652.818z"/>
	<path fill-rule="evenodd" clip-rule="evenodd" fill="#D78538" d="M134.413,706.567c-0.427,6.708,2.907,14.42-5.138,19.073
		c-8.728-4.104-6.176-11.693-5.748-18.623C127.002,703.054,130.659,703.684,134.413,706.567z"/>
	<path fill-rule="evenodd" clip-rule="evenodd" fill="#471145" d="M122.74,652.859c-4.002-0.012-8.004-0.028-12.006-0.047
		l0.103,0.099c-4.796-5.714-5.488-11.763-1.527-18.213c4.621-3.299,9.215-3.158,13.79,0.1c4.734,6.117,4.431,12.131-0.365,18.062
		H122.74z"/>
	<path fill-rule="evenodd" clip-rule="evenodd" fill="#995524" d="M134.413,706.567c-3.632,0.153-7.259,0.298-10.888,0.45
		c-0.176-5.972-0.35-11.944-0.525-17.904c3.911-0.111,7.819-0.228,11.729-0.345c5.47,5.937,4.816,12.236,1.092,18.717
		L134.413,706.567z"/>
	<path fill-rule="evenodd" clip-rule="evenodd" fill="#903C8C" d="M122.713,342.021c-0.061-3.859-0.121-7.723-0.186-11.583
		c-0.003,0.006,0.449-0.509,0.449-0.509c8.993-6.799,16.334-1.582,23.77,3.246c2.188,2.131,3.732,4.653,4.707,7.549
		c1.194,9.17,2.148,18.324-2.633,26.93c-5.186,6.398-10.385,12.784-19.606,13.188C109.115,370.908,115.893,356.47,122.713,342.021z"
		/>
	<path fill-rule="evenodd" clip-rule="evenodd" fill="#7B2E77" d="M122.713,342.021c4.248,11.811-9.97,29.773,11.91,35.704
		c3.264,3.928,3.176,8.038,0.656,12.288c-14.498,10.434-25.169,3.731-34.79-7.765c-0.592-1.371-1.159-2.76-1.729-4.149
		C107.628,366.664,106.476,348.571,122.713,342.021z"/>
	<path fill-rule="evenodd" clip-rule="evenodd" fill="#7B2E77" d="M74.972,449.684c6.29-19.51-13.43-44.146,11.828-59.908
		c7.747,6.655,9.591,16.83,14.919,24.95c-1.816,16.02-4.274,31.665-22.993,37.246C77.476,451.213,76.224,450.448,74.972,449.684z"/>
	<path fill-rule="evenodd" clip-rule="evenodd" fill="#943E8F" d="M74.653,497.245c0.099-5.908,0.198-11.811,0.298-17.719
		c2.82-3.053,6.308-3.619,10.184-2.762c2.289,1.069,4.127,2.669,5.56,4.742c3.211,6.595,7.938,12.293,11.53,18.698
		c1.824,4.991,1.754,9.924-0.45,14.805c-4.369,6.311-8.482,12.809-13.141,18.956c-3.447,2.574-7.209,3.064-11.247,1.691
		c-0.972-0.916-1.938-1.838-2.901-2.76c0.056-5.768,0.114-11.529,0.169-17.293C70.044,509.481,70.044,503.368,74.653,497.245z"/>
	<path fill-rule="evenodd" clip-rule="evenodd" fill="#7B2E77" d="M86.881,479.521c-3.979,0.006-7.955,0.006-11.93,0.006
		c-18.833-9.958-18.932-19.912,0.021-29.843l-0.096-0.087C83.559,457.688,98.399,463.321,86.881,479.521z"/>
	<path fill-rule="evenodd" clip-rule="evenodd" fill="#8C3987" d="M98.694,413.676c-16.258-1.851-10.546-14.63-11.895-23.9
		c0.516-7.45,4.293-11.554,11.961-11.676l-0.125-0.169C107.121,389.833,109.47,401.743,98.694,413.676z"/>
	<path fill-rule="evenodd" clip-rule="evenodd" fill="#933E8E" d="M62.46,586.88c-0.373-7.963-0.747-15.926-1.138-23.889
		c2.087-1.78,4.187-3.556,6.288-5.336c2.324-1.933,4.942-2.376,7.829-1.536c2.095,2.067,3.564,4.513,4.553,7.274
		c1.859,8.908,2.11,17.556-4.268,25.056c-4.302,2.16-8.389,2.23-12.081-1.307L62.46,586.88z"/>
	<path fill-rule="evenodd" clip-rule="evenodd" fill="#943E8F" d="M73.927,557.398c-2.096,0.087-4.195,0.17-6.305,0.257
		c-6.658-10.729-9.227-20.34,6.869-24.758c-0.003,0,0.42,0.414,0.42,0.414C80.85,541.595,82.543,549.711,73.927,557.398z"/>
	<path fill-rule="evenodd" clip-rule="evenodd" fill="#7B2E77" d="M74.653,497.245c0.003,6.111,0.006,12.236,0.006,18.354
		c-5.996-1.073-11.621-2.679-10.623-10.591C64.811,498.885,69.937,498.237,74.653,497.245z"/>
	<path fill-rule="evenodd" clip-rule="evenodd" fill="#D08B45" d="M172.561,336.107c-3.292,4.922-8.456,5.704-13.745,6.206
		c-5.269,0.386-8.813-2.65-12.146-6.117l-0.604,0.263c-7.336-10.258-7.505-20.356,0.656-30.271
		c3.112-13.053,14.008-11.902,23.682-12.995C171.121,307.496,171.842,321.799,172.561,336.107z"/>
	<path fill-rule="evenodd" clip-rule="evenodd" fill="#995524" d="M146.722,306.188c-0.216,10.082-0.429,20.177-0.65,30.271
		c-7.706-2.172-15.406-4.35-23.098-6.528c-0.126-7.957-0.251-15.901-0.38-23.853C130.637,306.113,138.678,306.148,146.722,306.188z"
		/>
	<path fill-rule="evenodd" clip-rule="evenodd" fill="#C7936A" d="M169.273,194.013c-7.341,0.426-14.68,0.853-22.014,1.279
		c-7.832-6.813-6.615-15.296-4.422-23.965c4.949-8.693,13.225-10.637,22.285-11.017c3.553,0.707,6.375,2.557,8.474,5.505
		C176.762,175.91,179.239,185.917,169.273,194.013z"/>
	<path fill-rule="evenodd" clip-rule="evenodd" fill="#7B2E77" d="M169.273,194.013c0.33-10.333,0.663-20.66,0.996-30.993
		c0.844-0.858,1.687-1.71,2.527-2.563c2.326-0.753,4.67-0.852,7.041-0.204c0.92,0.765,1.842,1.535,2.761,2.312
		c-0.438,12.447-0.876,24.904-1.325,37.369C176.633,199.239,171.721,199.121,169.273,194.013z"/>
	<path fill-rule="evenodd" clip-rule="evenodd" fill="#995524" d="M146.871,169.202c0.125,8.688,0.248,17.38,0.382,26.084
		c0.007,0.006,0.088,1.84,0.088,1.84c-3.776,5.533-8.223,5.007-13.007,1.441c0,0,0.219,0.496,0.222,0.496
		c0.093-9.931,0.187-19.86,0.283-29.791C138.824,165.093,142.838,165.682,146.871,169.202z"/>
	<path fill-rule="evenodd" clip-rule="evenodd" fill="#63205E" d="M134.334,198.567c4.334-0.473,8.67-0.94,13.004-1.424
		c-1.378,10.169,3.76,23.813-13.57,25.535C133.952,214.645,134.145,206.606,134.334,198.567z"/>
	<path fill-rule="evenodd" clip-rule="evenodd" fill="#D78538" d="M159.527,239.847c-0.365-8.062-3.975-18.178,10.628-16.743
		c5.271,5.154,5.359,10.783,1.507,16.76C167.613,243.075,163.564,244.107,159.527,239.847z"/>
	<path fill-rule="evenodd" clip-rule="evenodd" fill="#995524" d="M170.693,240.565c-0.18-5.821-0.357-11.642-0.538-17.462
		c3.692-0.614,7.382-1.226,11.071-1.833c0.301,6.253,0.602,12.511,0.905,18.775c-2.257,3.198-5.351,3.684-8.883,2.756
		C172.397,242.059,171.545,241.312,170.693,240.565z"/>
	<path fill-rule="evenodd" clip-rule="evenodd" fill="#995524" d="M159.527,239.847c3.721,0.239,7.443,0.478,11.166,0.719
		l-0.283-0.281c4.883,5.582,5.303,11.378,0.834,17.409c-0.715,0.724-1.412,1.465-2.105,2.218
		C156.997,257.505,158.707,248.463,159.527,239.847z"/>
	<path fill-rule="evenodd" clip-rule="evenodd" fill="#672262" d="M146.871,169.202c-4.011,0.018-8.024,0.041-12.035,0.07
		c0.12-3.976,0.236-7.952,0.351-11.927c2.382-9.948,6.349-19.691,3.879-30.275c-0.616-6.217,1.912-10.257,8.118-11.746
		c8.961-0.916,11.142,8.109,17.066,11.641c3.707,11.903,1.988,23.877,0.482,35.851C160.859,170.767,152.928,167.363,146.871,169.202
		z"/>
	<path fill-rule="evenodd" clip-rule="evenodd" fill="#AC6581" d="M147.184,115.324c-2.318,3.719-4.639,7.438-6.959,11.15
		c-1.967,2.446-3.666,2.271-5.1-0.52c-0.137-15.511-0.271-31.022-0.406-46.522c0.223-1.827,0.318-3.672,0.293-5.511
		c5.854-0.31,11.708-0.63,17.56-0.952C144.638,86.305,148.623,101.162,147.184,115.324z"/>
	<path fill-rule="evenodd" clip-rule="evenodd" fill="#7B2E77" d="M135.125,125.955c1.693,0.269,3.395,0.45,5.105,0.52
		c8.926,12.021,12.424,23.154-5.047,30.865c0.003,0.006-1.004-1.167-1.004-1.167c-5.877-7.654-5.855-15.237,0.283-22.744
		C134.682,130.935,134.903,128.443,135.125,125.955z"/>
	<path fill-rule="evenodd" clip-rule="evenodd" fill="#DAA969" d="M134.463,133.428c-0.094,7.583-0.188,15.167-0.283,22.75
		c-8.824,1.121-11.338-3.625-11.35-11.518C122.818,136.545,125.866,132.289,134.463,133.428z"/>
	<path fill-rule="evenodd" clip-rule="evenodd" fill="#C26E55" d="M122.576,48.592c0.033,8.271,0.062,16.544,0.091,24.822
		c-3.932-0.146-7.861-0.298-11.79-0.449C111.797,63.408,104.958,50.127,122.576,48.592z"/>
	<path fill-rule="evenodd" clip-rule="evenodd" fill="#54183F" d="M180.512,535.126c1.25-17.251,2.501-34.49,4.08-56.306
		c14.939,12.907,7.619,26.517,10.521,37.393c4.571,5.143,5.23,11.424,5.198,17.904c-0.336,7.968,1.189,16.258-4.131,23.34
		c-4.488,3.117-9.062,3.111-13.718,0.368C176.168,550.742,175.678,543.166,180.512,535.126z"/>
	<path fill-rule="evenodd" clip-rule="evenodd" fill="#111015" d="M193.344,557.346c0.476-8.255,0.951-16.51,1.427-24.771
		c4.522-2.789,8.614-2.843,11.956,1.879c0.269,9.723,0.534,19.431,0.807,29.15c-0.804,9.778-1.606,19.562-2.412,29.348
		c-3.672,2.09-7.341,4.185-11.014,6.27c-10.656,5.51-13.713-0.117-14.156-9.616C185.24,579.215,186.426,567.089,193.344,557.346z"/>
	<path fill-rule="evenodd" clip-rule="evenodd" fill="#D78538" d="M168.395,479.539c0.213,17.969,0.43,35.932,0.643,53.9
		c-4.758,2.973-8.949,1.979-12.75-1.815c-6.387-10.117-5.307-21.443-5.312-32.599c0.252-6.463,1.24-12.738,4.857-18.302
		C159.676,476.771,163.859,476.265,168.395,479.539z"/>
	<path fill-rule="evenodd" clip-rule="evenodd" fill="#D78538" d="M160.368,533.633c2.893-0.063,5.788-0.128,8.675-0.193
		c3.826,0.561,7.656,1.127,11.48,1.693c0.254,6.883,0.516,13.771,0.781,20.654c-0.582,1.161-1.164,2.323-1.741,3.491
		c-3.396,2.276-7.181,3.053-11.215,2.941c-2.671-0.273-5.208-1.015-7.642-2.154c-7.694-5.562-8.475-13.094-6.156-21.528
		C155.73,536.015,157.678,534.38,160.368,533.633z"/>
	<path fill-rule="evenodd" clip-rule="evenodd" fill="#C47630" d="M164.562,424.609c9.438,6.393,4.906,16.458,6.541,24.898
		c-0.727,4.168-1.455,8.331-2.186,12.494c-5.274,3.076-9.875,2.568-13.623-2.557C150.979,445.871,146.004,432.105,164.562,424.609z"
		/>
	<path fill-rule="evenodd" clip-rule="evenodd" fill="#D78538" d="M159.936,461.955c2.998,0.017,5.993,0.028,8.984,0.047
		c-0.172,5.849-0.344,11.693-0.519,17.537c-2.659-0.006-5.315-0.006-7.97-0.013C153.246,473.87,153.613,467.997,159.936,461.955z"/>
	<path fill-rule="evenodd" clip-rule="evenodd" fill="#995524" d="M206.727,534.454c-3.986-0.622-7.978-1.248-11.959-1.879
		c0.114-5.458,0.225-10.917,0.339-16.369C209.264,515.745,205.241,526.854,206.727,534.454z"/>
	<path fill-rule="evenodd" clip-rule="evenodd" fill="#677DA2" d="M205.699,653.269c0.006,11.676,0.012,23.346,0.015,35.021
		c-13.743,2.171-9.206-20.06-23.282-17.433c-1.208-1.319-2.42-2.638-3.647-3.946c-5.182-10.217-5.054-21.145-2.738-31.78
		c1.911-8.782,5.245-17.83,17.728-11.683c0.416,3.637,0.83,7.274,1.248,10.917C200.165,639.771,200.538,647.867,205.699,653.269z"/>
	<path fill-rule="evenodd" clip-rule="evenodd" fill="#113B44" d="M182.432,670.857c-0.764,16.545-9.404,28.115-23.027,36.563
		c-1.047-0.602-2.096-1.203-3.158-1.781c-3.838-4.723-6.926-10.012-10.939-14.665c-1.501-2.184-2.499-4.565-3.18-7.122
		c-0.797-5.686,0.07-10.899,4.219-15.213c3.607-2.493,7.65-3.72,11.953-4.262c4.334-0.521,8.657-0.427,12.972,0.251
		c4.425,0.829,8.024,3.152,11.185,6.251L182.432,670.857z"/>
	<path fill-rule="evenodd" clip-rule="evenodd" fill="#113B44" d="M158.62,724.636c-12.901-0.192-11.909-9.504-11.909-18.161
		c1.138-0.777,2.279-1.559,3.421-2.341c2.816-0.491,5.403,0.046,7.708,1.78c0,0,1.557,1.495,1.562,1.501
		C159.143,713.16,158.883,718.897,158.62,724.636z"/>
	<path fill-rule="evenodd" clip-rule="evenodd" fill="#7B2E77" d="M159.936,461.955c0.162,5.86,0.322,11.717,0.488,17.571
		c-0.727,5.867-1.466,11.734-2.201,17.602c-22.219-2.731-34.172-19.317-28.127-41.91c3.525-13.182,7.648-26.429,13.291-39.032
		c3.16-4.383,7.486-6.404,12.849-6.293c3.449,0.455,6.24,2.067,8.372,4.822c-0.016,3.298-0.03,6.602-0.045,9.9
		C153.082,435.83,160.328,449.367,159.936,461.955z"/>
	<path fill-rule="evenodd" clip-rule="evenodd" fill="#D78538" d="M164.607,414.715c-1.787-0.626-3.627-1.011-5.512-1.157
		c-6.554-6.198-8.033-14.032-7.28-22.597c1.203-8.775,4.694-15.78,14.206-18.01c1.037,0.333,1.977,0.854,2.809,1.571
		C168.019,388,176.367,402.413,164.607,414.715z"/>
	<path fill-rule="evenodd" clip-rule="evenodd" fill="#D78538" d="M171.244,257.693c-0.277-5.803-0.558-11.606-0.834-17.409
		c3.908-0.083,7.816-0.159,11.725-0.233c-0.003-0.006,0.672,0.676,0.672,0.676c4.272,4.531,4.883,9.621,2.352,15.202
		c-1.006,0.947-2.02,1.886-3.029,2.826C178.498,258.4,174.872,258.049,171.244,257.693z"/>
	<path fill-rule="evenodd" clip-rule="evenodd" fill="#D68538" d="M194.079,276.684c-11.947-0.678-11.495-9.603-11.947-17.934
		c-0.003,0.006,0.671-0.676,0.671-0.676c3.033-3.06,6.615-3.45,10.556-2.195c2.238,1.424,3.867,3.362,4.915,5.801
		c1.492,5.401,0.651,10.247-3.479,14.287L194.079,276.684z"/>
	<path fill-rule="evenodd" clip-rule="evenodd" fill="#7B2E77" d="M164.732,162.815c-11.592-11.798-5.307-23.835-0.479-35.851
		c2.098,1.962,4.202,3.917,6.305,5.873c7.91,9.861,8.152,19.761,0.184,29.715l-0.471,0.461c-0.002,0.006-2.76-0.368-2.76-0.368
		L164.732,162.815z"/>
	<path fill-rule="evenodd" clip-rule="evenodd" fill="#93533B" d="M194.389,133.264c-0.056,9.703-0.111,19.411-0.17,29.113
		c-3.873,0.059-7.746,0.123-11.62,0.187l-0.33,0.222c-7.017-10.036-7.096-20.019,0.198-29.96
		C186.44,132.972,190.412,133.118,194.389,133.264z"/>
	<path fill-rule="evenodd" clip-rule="evenodd" fill="#6A2366" d="M182.467,132.827c-0.061,9.983-0.119,19.971-0.189,29.954
		c-3.857-0.07-7.703-0.14-11.544-0.221c-0.053-9.913-0.114-19.814-0.175-29.721C174.527,132.838,178.498,132.832,182.467,132.827z"
		/>
	<path fill-rule="evenodd" clip-rule="evenodd" fill="#471146" d="M205.953,223.32c0.039,5.377,0.072,10.752,0.113,16.129
		c0.007,0,0.242,1.271,0.242,1.271c-2.586,2.956-5.709,3.241-9.17,1.846c-0.713-0.893-1.426-1.786-2.135-2.679
		C195.104,232.018,191.236,221.528,205.953,223.32z"/>
	<path fill-rule="evenodd" clip-rule="evenodd" fill="#D7984E" d="M194.47,258.37c-3.891-0.098-7.781-0.192-11.67-0.292
		c0-5.791,0-11.571,0-17.357c4.069-0.273,8.136-0.553,12.201-0.833c0.003,0-0.283,0.238-0.283,0.238
		C199.105,246.269,199.771,252.357,194.47,258.37z"/>
	<path fill-rule="evenodd" clip-rule="evenodd" fill="#D9A868" d="M194.47,258.37c0.083-6.083,0.164-12.16,0.246-18.244
		c3.87,0.194,7.734,0.392,11.599,0.591c-0.025,5.832-0.049,11.664-0.072,17.491C202.365,261.826,198.443,261.809,194.47,258.37
		L194.47,258.37z"/>
	<path fill-rule="evenodd" clip-rule="evenodd" fill="#D7984E" d="M194.47,258.37c3.927-0.052,7.85-0.104,11.772-0.157
		c0.097,8.441,1.048,17.439-11.451,17.753C194.686,270.099,194.578,264.238,194.47,258.37z"/>
	<path fill-rule="evenodd" clip-rule="evenodd" fill="#7C3363" d="M166.021,372.95c-2.551,5.633-5.102,11.269-7.652,16.902
		c-2.691,3.047-6.061,4.775-10.098,5.236c-4.016,0.186-7.799-0.607-11.27-2.71c-0.785-1.044-1.564-2.102-2.344-3.152
		c-0.012-3.835-0.023-7.664-0.035-11.5c0.493-8.12,5.264-11.647,12.938-12.05c3.674-3.316,7.305-3.21,10.904,0.124
		C160.984,368.181,163.503,370.569,166.021,372.95z"/>
	<path fill-rule="evenodd" clip-rule="evenodd" fill="#D78538" d="M158.465,365.799c-3.637-0.041-7.273-0.083-10.908-0.124
		c-0.295-9.819-0.59-19.65-0.888-29.48c5.101-0.047,9.546,1.197,12.144,6.117C158.699,350.148,158.582,357.975,158.465,365.799z"/>
	<path fill-rule="evenodd" clip-rule="evenodd" fill="#63205E" d="M63.643,587.143c3.508-0.035,7.017-0.07,10.529-0.105
		c4.466,0.579,7.318,3.141,8.941,7.233c0.843,9.51-1.232,18.681-3.322,27.863c-1.021,2.553-2.674,4.624-4.833,6.306
		c-4.063,0.158-8.126,0.315-12.192,0.473C63.057,614.989,63.349,601.06,63.643,587.143z"/>
	<path fill-rule="evenodd" clip-rule="evenodd" fill="#485482" d="M182.455,670.88c-3.857-0.145-7.717-0.291-11.579-0.437
		c-9.378-9.346-8.079-21.384-8.403-33.014c0.657-14.554-1.024-29.259,2.367-43.684c1.027-3.159,2.762-5.88,5.135-8.197
		c2.991-1.501,6.141-1.945,9.439-1.354c1.401,0.812,2.809,1.63,4.212,2.44c-0.483,7.513,3.534,11.267,10.485,12.587
		c-0.114,8.073-0.223,16.147-0.336,24.221C170.771,634.674,187.628,655.404,182.455,670.88z"/>
	<path fill-rule="evenodd" clip-rule="evenodd" fill="#495582" d="M205.699,653.269c-12.07-1.49-11.442-10.164-10.681-18.903
		c3.761,0.234,7.517,0.468,11.272,0.701C206.094,641.132,205.897,647.197,205.699,653.269z"/>
	<path fill-rule="evenodd" clip-rule="evenodd" fill="#5E1F5A" d="M74.957,628.439c-0.026-1.892-0.009-3.783,0.05-5.669
		c10.479-7.618,17.314,3.306,25.981,5.033c3.873,1.523,7.37,3.561,9.746,7.122c0.032,5.995,0.067,11.984,0.103,17.985
		c-11.985,0-23.973,0-35.959,0C74.904,644.756,74.931,636.601,74.957,628.439z"/>
	<path fill-rule="evenodd" clip-rule="evenodd" fill="#6B2D13" d="M135.82,707.485c-0.365-6.241-0.727-12.482-1.092-18.717
		l-0.226-0.151c3.649-3.376,7.424-3.51,11.32-0.438l2.405,1.01c3.613,6.288,3.225,12.161-1.816,17.555c0,0,0.295-0.263,0.295-0.269
		C143.079,706.813,139.448,707.146,135.82,707.485z"/>
	<path fill-rule="evenodd" clip-rule="evenodd" fill="#995524" d="M156.469,670.082c-3.387,0.291-6.77,0.583-10.155,0.875
		c-3.685,3.386-7.382,3.386-11.089,0.035c-0.078-5.989-0.161-11.974-0.242-17.963c1.036-1.04,2.072-2.073,3.103-3.124
		c4.099-2.096,8.444-2.668,12.989-2.137c4.623,0.911,8.553,2.873,10.806,7.31C163.378,661.261,164.289,667.25,156.469,670.082z"/>
	<path fill-rule="evenodd" clip-rule="evenodd" fill="#63205E" d="M122.734,652.859c0.018-5.984,0.035-11.961,0.056-17.939
		c1.199-0.842,2.401-1.681,3.607-2.522c4.711-0.905,8.681,0.087,11.36,4.426c2.551,6.082,1.4,11.494-2.947,16.328l0.169-0.122
		C130.898,652.971,126.818,652.911,122.734,652.859z"/>
	<path fill-rule="evenodd" clip-rule="evenodd" fill="#D78538" d="M135.225,670.992c3.698-0.018,7.396-0.029,11.092-0.042
		c-0.163,5.751-0.326,11.496-0.49,17.235c-3.774,0.139-7.546,0.291-11.32,0.432C134.742,682.744,134.984,676.865,135.225,670.992z"
		/>
	<path fill-rule="evenodd" clip-rule="evenodd" fill="#5D1E58" d="M110.734,634.926c-4.092-0.047-8.182-0.093-12.274-0.141
		c-5.68-15.996,5.158-26.008,13.398-36.994c5.26-2.102,9.714-0.946,13.444,3.281c6.559,11.879,6.033,23.205-2.577,33.911
		l0.062-0.063C118.77,634.92,114.751,634.92,110.734,634.926z"/>
	<path fill-rule="evenodd" clip-rule="evenodd" fill="#63205E" d="M98.694,413.676c-0.018-11.91-0.035-23.83-0.056-35.746
		c12.397,2.522,20.94,17.333,36.02,11.302c0-0.006,0.073,0.666,0.073,0.666c5.782,6.404,7.338,13.846,5.481,22.13
		c-2.023,7.835-7.738,12.873-13.529,17.841c-15.725,13.608-16.784,35.127-27.64,51.38c-4.407,1.885-8.517,1.687-12.166-1.723
		l0.003-0.006c4.025-13.193-11.612-18.505-12.006-29.924C90.956,443.022,90.135,425.24,98.694,413.676z"/>
	<path fill-rule="evenodd" clip-rule="evenodd" fill="#A45A2C" d="M73.927,557.398c0.327-8.027,0.656-16.054,0.984-24.087
		c4.206-0.381,8.409-0.753,12.616-1.127c3.774-2.971,8.07-4.319,12.857-4.19c4.772,0.5,8.906,2.305,12.125,5.966
		c3.456,5.686,3.622,11.465,0.469,17.332c-8.138,8.033-19.019,6.976-29.069,8.751c-3.01,0.076-5.701-0.87-8.112-2.656
		L73.927,557.398z"/>
	<path fill-rule="evenodd" clip-rule="evenodd" fill="#63205E" d="M110.612,533.119c-3.844-0.279-7.682-0.561-11.527-0.842
		c-5.373-5.545-4.869-11.272-0.54-17.123c-0.187-5.865-0.374-11.728-0.561-17.595c1.083-0.881,2.169-1.764,3.257-2.655
		c2.77-0.741,5.529-0.713,8.293,0.075c2.458,1.536,4.293,3.62,5.558,6.225c2.957,9.83,3.439,19.562-1.316,29.06
		C112.73,531.221,111.671,532.168,110.612,533.119z"/>
	<path fill-rule="evenodd" clip-rule="evenodd" fill="#7C2D76" d="M86.878,479.526c3.879,0.081,7.762,0.17,11.641,0.252
		c5.525,5.528,5.125,11.431,1.095,17.554c0,0-1.618,0.228-1.624,0.228C86.227,496.51,86.907,487.8,86.878,479.526z"/>
	<path fill-rule="evenodd" clip-rule="evenodd" fill="#7B2E77" d="M98.545,515.154c0.178,5.71,0.356,11.42,0.54,17.123
		c-3.855-0.029-7.714-0.058-11.564-0.087C86.221,523.288,87.535,516.083,98.545,515.154z"/>
	<path fill-rule="evenodd" clip-rule="evenodd" fill="#995524" d="M75.797,557.387c1.638-0.006,3.276-0.017,4.913-0.035
		c4.907,0.848,8.193,3.748,10.324,8.133c3.106,9.112,3.368,18.051-1.746,26.632c-2.306,2.511-5.041,3.089-8.178,1.752
		c-2.309-2.276-4.621-4.555-6.936-6.831C74.711,577.154,75.255,567.271,75.797,557.387z"/>
	<path fill-rule="evenodd" clip-rule="evenodd" fill="#6B2D13" d="M193.344,557.346c-1.944,10.199,9.614,24.881-9.723,29.295
		c0.005-0.006-0.914,0.548-0.914,0.548c-8.492-10.076-8.176-20.351-0.672-30.777c0,0-0.718-0.624-0.724-0.624
		C185.316,556.308,189.33,556.826,193.344,557.346z"/>
	<path fill-rule="evenodd" clip-rule="evenodd" fill="#63205E" d="M122.699,425.854c4.008-4.045,8.013-8.098,12.02-12.143
		c2.646-3.143,5.932-3.572,9.627-2.282c0.844,0.852,1.688,1.709,2.527,2.567c-1.602,13.199,0.57,25.787-8.1,39.179
		c-13.246,20.467,5.733,32.302,19.449,43.953c0.713,12.167,1.425,24.338,2.143,36.505c0.003,0-2.225-0.21-2.225-0.21
		c-6.78,5.242-4.325,16.486-13.229,20.373c-15.094,1.833-18.238-11.465-25.281-19.877c-6.275-11.366,2.019-26.271-8.897-36.517
		l0.108,0.11C94.158,470.209,117.708,449.572,122.699,425.854z"/>
	<path fill-rule="evenodd" clip-rule="evenodd" fill="#7B2E77" d="M146.349,551.508c0.487-8.271-0.505-17.519,11.795-18.085
		c1.886,8.296-2.903,18.302,6.358,24.699c0.799,5.512-2.643,7.718-7.111,9.136c-4.6,0.602-8.745-0.361-12.242-3.566
		C143.006,559.384,143.104,555.29,146.349,551.508z"/>
	<path fill-rule="evenodd" clip-rule="evenodd" fill="#113B44" d="M182.035,556.411c0.223,10.258,0.446,20.521,0.668,30.777
		c-4.101-0.006-8.201-0.011-12.306-0.011c-9.187-10.123-6.36-19.983,0.63-29.762C174.7,557.083,178.367,556.744,182.035,556.411z"/>
	<path fill-rule="evenodd" clip-rule="evenodd" fill="#6B2D13" d="M171.027,557.416c-0.209,9.918-0.416,19.837-0.63,29.756
		c0,0.006,0.23-0.252,0.23-0.252c-4.519,4.029-9.118,3.638-13.789,0.263c-5.277-8.301-4.536-16.065,2.108-23.292
		c1.85-1.927,3.703-3.848,5.555-5.774C166.676,557.889,168.854,557.655,171.027,557.416z"/>
	<path fill-rule="evenodd" clip-rule="evenodd" fill="#23120B" d="M156.469,670.082c0.178-5.973,0.353-11.951,0.528-17.93
		c-4.002-5.96-3.337-11.669,0.898-17.197c4.21-2.891,8.343-3.69,12.267,0.513c0.238,11.653,0.475,23.316,0.714,34.976
		C166.074,670.32,161.273,670.204,156.469,670.082z"/>
	<path fill-rule="evenodd" clip-rule="evenodd" fill="#010101" d="M146.412,706.743c0.605-5.854,1.206-11.711,1.813-17.555
		c12.169,0.427,10.274,8.933,9.618,16.731C154.031,706.195,150.225,706.469,146.412,706.743z"/>
	<path fill-rule="evenodd" clip-rule="evenodd" fill="#63205E" d="M146.585,389.904c3.929-0.018,7.858-0.035,11.786-0.052
		c0.24,7.904,0.479,15.807,0.721,23.706c-4.074,0.146-8.148,0.294-12.221,0.438c0.002,0-0.348-0.35-0.348-0.35
		C140.283,405.719,140.32,397.803,146.585,389.904z"/>
	<path fill-rule="evenodd" clip-rule="evenodd" fill="#471146" d="M146.585,389.904c-0.017,7.917-0.038,15.832-0.059,23.743
		c-3.937,0.023-7.872,0.046-11.808,0.064c0.004-7.935,0.006-15.875,0.013-23.813C138.684,389.898,142.633,389.898,146.585,389.904z"
		/>
	<path fill-rule="evenodd" clip-rule="evenodd" fill="#010101" d="M81.11,593.868c2.017-0.525,4.034-1.046,6.054-1.571
		c7.37-3.012,13.753-0.233,20.003,3.38c0.931,1.052,1.85,2.125,2.77,3.194c6.062,15.132-7.02,24.146-11.478,35.914
		c-11.001,2.206-13.103-12.96-23.453-12.015C74.592,612.618,74.148,602.455,81.11,593.868z"/>
	<path fill-rule="evenodd" clip-rule="evenodd" fill="#103A44" d="M170.162,635.468c-3.793-0.257-7.588-0.507-11.379-0.759
		c-1.118-1.085-2.236-2.171-3.371-3.246c-5.287-10.291-4.473-21.202-3.307-32.166c0.975-4.74,2.883-8.943,7.046-11.786
		c3.823-0.198,7.649-0.393,11.477-0.585C170.474,603.098,170.315,619.285,170.162,635.468z"/>
	<path fill-rule="evenodd" clip-rule="evenodd" fill="#7C2D76" d="M134.811,653.151c-0.141-6.165-0.278-12.323-0.418-18.488
		c-1.042-5.622,2.072-7.227,6.933-7.163c4.095,1.739,7.028,4.647,8.874,8.687c1.924,5.849,1.152,11.215-2.92,15.979
		C143.123,652.491,138.967,652.824,134.811,653.151z"/>
	<path fill-rule="evenodd" clip-rule="evenodd" fill="#D68538" d="M147.279,652.165c0.021-5.627,0.041-11.244,0.062-16.865
		c3.252-3.043,6.491-3.708,9.726,0.023c0,0,1.717-0.608,1.717-0.614c-0.596,5.815-1.191,11.63-1.786,17.443
		C153.757,652.159,150.52,652.159,147.279,652.165z"/>
	<path fill-rule="evenodd" clip-rule="evenodd" fill="#471145" d="M140.496,629.765c-2.032,1.635-4.062,3.27-6.101,4.903
		c-3.894,0.101-7.779,0.211-11.67,0.315c0.018-11.985,0.038-23.97,0.058-35.949c0.312-1.271,0.625-2.539,0.906-3.812
		c3.391-8.47,5.075-16.941-0.117-25.354c-1.559-1.916-2.986-3.923-4.42-5.926c-2.895-3.922-6.074-7.694-7.592-12.464
		c-0.315-6.111-0.63-12.236-0.949-18.359l0.765-0.17c3.874-3.211,7.688-3.163,11.442,0.211c13.807-1.536,9.939,19.598,23.533,18.348
		c0.21,4.022,0.423,8.045,0.636,12.066c8.419,10.521,4.671,22.996,5.597,34.72C151.742,610.009,155.365,623.442,140.496,629.765z"/>
	<path fill-rule="evenodd" clip-rule="evenodd" fill="#471145" d="M122.783,599.034c-4.279-0.052-8.558-0.105-12.843-0.157
		c-0.003-0.006,0.128-0.8,0.128-0.8c-8.661-11.011-8.059-22.459-1.632-34.193c4.426-3.998,9.09-4.6,14.035-0.934l0.336,0.328
		c7.915,11.978,7.925,23.929-0.117,35.849L122.783,599.034z"/>
	<path fill-rule="evenodd" clip-rule="evenodd" fill="#471146" d="M122.699,425.854c5.943,25.529-17.987,46.103-11.859,71.659
		c-3.748-0.059-7.494-0.122-11.232-0.181c-0.356-5.854-0.718-11.705-1.086-17.554C98.647,458.248,103.793,438.971,122.699,425.854z"
		/>
	<path fill-rule="evenodd" clip-rule="evenodd" fill="#471146" d="M122.472,562.95c-3.961,0.117-7.919,0.233-11.881,0.356
		c-7.667,6.06-15.482,6.643-23.471,0.612c-2.137-2.189-4.273-4.378-6.407-6.567c8.868-9.334,20.424-4.612,30.841-5.873
		C119.077,551.612,122.562,555.584,122.472,562.95z"/>
	<path fill-rule="evenodd" clip-rule="evenodd" fill="#471146" d="M122.818,533.16c-3.818-0.07-7.633-0.141-11.447-0.211
		c-0.21-11.85-0.424-23.701-0.637-35.547C132.521,503.323,118.598,521.303,122.818,533.16z"/>
	<path fill-rule="evenodd" clip-rule="evenodd" fill="#CD7D33" d="M87.12,563.919c7.826-0.204,15.651-0.409,23.471-0.618
		c-0.171,11.6-0.344,23.193-0.519,34.776c-8.351,0.905-15.911-1.313-22.907-5.78C87.149,582.841,87.135,573.377,87.12,563.919z"/>
	<path fill-rule="evenodd" clip-rule="evenodd" fill="#C47530" d="M147.96,599.069c-0.324-11.827-0.647-23.66-0.973-35.495
		c3.985,0.105,7.97,0.204,11.956,0.31c0.07,7.883,0.138,15.751,0.205,23.621c-0.602,3.857-1.209,7.711-1.813,11.564
		C154.209,602.472,151.086,602.479,147.96,599.069z"/>
	<path fill-rule="evenodd" clip-rule="evenodd" fill="#C47630" d="M147.96,599.069c3.126,0,6.249,0,9.375,0
		c-0.087,12.085-0.178,24.168-0.266,36.254c-3.245-0.013-6.488-0.023-9.731-0.029c-2.276-1.846-4.557-3.69-6.839-5.534
		C147.762,620.692,145.244,609.244,147.96,599.069z"/>
	<path fill-rule="evenodd" clip-rule="evenodd" fill="#63205E" d="M122.69,599.127c0.038-11.944,0.075-23.899,0.117-35.849
		C141.387,575.291,141.258,587.242,122.69,599.127z"/>
</g>
</svg>
